HIERARCHY
ROOT Hips
{
	OFFSET 0.000000 0.000000 0.000000
	CHANNELS 6 Xposition Yposition Zposition Zrotation Yrotation Xrotation 
	JOINT LeftUpLeg_virtual
	{
		OFFSET 0.000000 0.000000 0.000000
		CHANNELS 3 Zrotation Yrotation Xrotation
		JOINT LeftUpLeg
		{
			OFFSET 8.479694 -4.795517 -0.379053
			CHANNELS 3 Zrotation Yrotation Xrotation
			JOINT LeftLeg
			{
				OFFSET 0.485052 -32.551468 0.112863
				CHANNELS 3 Zrotation Yrotation Xrotation
				JOINT LeftFoot
				{
					OFFSET 0.438033 -32.635670 -3.012641
					CHANNELS 3 Zrotation Yrotation Xrotation
					JOINT LeftToeBase
					{
						OFFSET 0.970169 -13.225353 11.864223
						CHANNELS 3 Zrotation Yrotation Xrotation
						End Site
						{
							OFFSET 0.000000 0.000000 0.000000
						}
					}
				}
			}
		}
	}
	JOINT RightUpLeg_virtual
	{
		OFFSET 0.000000 0.000000 0.000000
		CHANNELS 3 Zrotation Yrotation Xrotation
		JOINT RightUpLeg
		{
			OFFSET -8.479694 -4.795517 -0.379053
			CHANNELS 3 Zrotation Yrotation Xrotation
			JOINT RightLeg
			{
				OFFSET -0.484100 -32.551483 0.112903
				CHANNELS 3 Zrotation Yrotation Xrotation
				JOINT RightFoot
				{
					OFFSET -0.438985 -32.635651 -3.012681
					CHANNELS 3 Zrotation Yrotation Xrotation
					JOINT RightToeBase
					{
						OFFSET -0.970169 -13.225354 11.864223
						CHANNELS 3 Zrotation Yrotation Xrotation
						End Site
						{
							OFFSET 0.000000 0.000000 0.000000
						}
					}
				}
			}
		}
	}
	JOINT Spine_virtual
	{
		OFFSET 0.000000 0.000000 0.000000
		CHANNELS 3 Zrotation Yrotation Xrotation
		JOINT Spine
		{
			OFFSET 0.000000 7.722015 1.166203
			CHANNELS 3 Zrotation Yrotation Xrotation
			JOINT Spine1
			{
				OFFSET 0.000000 12.024086 0.248766
				CHANNELS 3 Zrotation Yrotation Xrotation
				JOINT Spine2
				{
					OFFSET -0.000000 11.503036 -0.491240
					CHANNELS 3 Zrotation Yrotation Xrotation
					JOINT Neck_virtual
					{
						OFFSET 0.000000 0.000000 0.000000
						CHANNELS 3 Zrotation Yrotation Xrotation
						JOINT Neck
						{
							OFFSET 0.000000 18.430687 -3.123054
							CHANNELS 3 Zrotation Yrotation Xrotation
							JOINT Head
							{
								OFFSET -0.000000 9.051071 1.034021
								CHANNELS 3 Zrotation Yrotation Xrotation
								End Site
								{
									OFFSET 0.000000 0.000000 0.000000
								}
							}
						}
					}
					JOINT LeftShoulder_virtual
					{
						OFFSET 0.000000 0.000000 0.000000
						CHANNELS 3 Zrotation Yrotation Xrotation
						JOINT LeftShoulder
						{
							OFFSET 6.197824 13.665230 -4.064723
							CHANNELS 3 Zrotation Yrotation Xrotation
							JOINT LeftArm
							{
								OFFSET 7.778132 -0.187073 -1.709282
								CHANNELS 3 Zrotation Yrotation Xrotation
								JOINT LeftForeArm
								{
									OFFSET 21.954697 0.000000 -2.041093
									CHANNELS 3 Zrotation Yrotation Xrotation
									JOINT LeftHand
									{
										OFFSET 22.992908 0.000000 -0.870901
										CHANNELS 3 Zrotation Yrotation Xrotation
										End Site
										{
											OFFSET 0.000000 0.000000 0.000000
										}
									}
								}
							}
						}
					}
					JOINT RightShoulder_virtual
					{
						OFFSET 0.000000 0.000000 0.000000
						CHANNELS 3 Zrotation Yrotation Xrotation
						JOINT RightShoulder
						{
							OFFSET -6.197824 13.665230 -4.064723
							CHANNELS 3 Zrotation Yrotation Xrotation
							JOINT RightArm
							{
								OFFSET -7.778132 -0.187073 -1.709282
								CHANNELS 3 Zrotation Yrotation Xrotation
								JOINT RightForeArm
								{
									OFFSET -21.954697 0.000000 -2.041093
									CHANNELS 3 Zrotation Yrotation Xrotation
									JOINT RightHand
									{
										OFFSET -22.992908 0.000000 -0.870901
										CHANNELS 3 Zrotation Yrotation Xrotation
										End Site
										{
											OFFSET 0.000000 0.000000 0.000000
										}
									}
								}
							}
						}
					}
				}
			}
		}
	}
}
MOTION
Frames: 12
Frame Time: 0.033333
-94.634544 80.101303 6.585432 179.675448 24.767239 -179.350673 -3.350647 -4.818129 11.710866 -6.045609 4.220993 -19.710241 8.927620 -2.832562 38.133643 -8.555239 -8.458330 -20.531374 0.000000 0.000000 0.000000 -0.439452 -1.979076 11.042556 -4.484400 -2.629131 -43.591825 -1.284814 4.692639 30.036580 9.983746 4.875967 1.963337 0.000000 0.000000 0.000000 4.419885 1.305514 -4.721055 1.436167 2.156736 -0.818455 -0.084854 -2.419383 7.819072 0.108037 0.233346 0.073619 -0.288287 -1.161595 9.547753 2.547121 -6.572627 1.180936 0.000000 0.000000 0.000000 1.103385 -0.773414 6.111845 -5.222553 -4.888387 3.306784 -73.868189 -18.669738 -14.099285 155.214915 -82.178172 -131.741058 0.000000 0.000000 0.000000 -3.055274 1.062142 5.898417 15.620417 11.639976 9.145757 26.476453 -21.963843 47.372809 -23.210830 84.067990 -19.672034 0.000000 0.000000 0.000000 
-92.949753 79.735909 4.730141 179.565072 24.755534 -179.149045 -3.305335 -5.372971 11.539611 -5.585759 4.047577 -18.435869 9.097235 -2.943931 39.118126 -8.295450 -8.486760 -20.432362 0.000000 0.000000 0.000000 -0.724084 -1.626491 10.838621 -4.345622 -2.655234 -42.802162 -1.321781 4.975961 29.283852 9.629591 5.035040 2.570771 0.000000 0.000000 0.000000 4.550477 1.278231 -5.588541 1.407379 2.334490 -0.923090 -0.017396 -2.422564 7.798024 0.036648 0.210873 0.190402 -0.158142 -0.994264 9.614849 3.003347 -6.913170 1.632402 0.000000 0.000000 0.000000 1.189668 -0.754089 6.010267 -5.381986 -4.663097 3.120957 -73.076057 -18.201131 -14.860950 152.285843 -82.636649 -129.286738 0.000000 0.000000 0.000000 -2.810824 1.032265 5.941207 15.749854 11.428304 9.119272 26.303026 -21.492609 47.441288 -25.447721 84.666813 -22.135434 0.000000 0.000000 0.000000 
-91.040710 79.401283 2.763092 179.505663 24.670367 -178.848162 -3.331630 -5.547097 11.576926 -4.983474 3.839822 -16.953127 9.256820 -2.973369 39.988695 -8.135273 -8.596262 -20.055853 0.000000 0.000000 0.000000 -0.915745 -1.322305 10.569667 -4.354368 -2.050997 -41.844010 -1.399822 5.560453 28.711165 9.528378 5.338898 3.933292 0.000000 0.000000 0.000000 4.537583 0.833244 -6.422715 1.298129 2.521969 -1.220910 0.184383 -2.106010 7.694585 0.012872 0.630978 0.142171 -0.049092 -1.372922 9.719441 3.512267 -7.235359 2.108410 0.000000 0.000000 0.000000 1.331567 -0.970037 6.202656 -5.419105 -4.747735 3.061381 -72.365868 -17.769608 -15.586859 149.314082 -82.736636 -126.854317 0.000000 0.000000 0.000000 -2.828234 0.934604 5.836043 16.268957 11.000602 9.027890 26.199648 -21.102266 47.586519 -27.062231 85.206248 -23.996285 0.000000 0.000000 0.000000 
-88.936951 79.137505 0.756037 179.486320 24.202605 -178.638625 -3.378989 -5.428068 11.698542 -4.192517 3.521882 -15.506676 9.398928 -3.073773 40.572983 -8.081008 -8.767580 -19.480787 0.000000 0.000000 0.000000 -1.276512 -1.617925 10.373840 -4.105018 -0.572104 -40.921303 -1.670418 6.594482 29.486265 10.053127 5.968353 3.735583 0.000000 0.000000 0.000000 4.332664 1.262564 -7.033461 1.124684 2.353346 -1.636937 0.364021 -2.412412 7.619532 -0.004096 0.335085 0.130483 0.082321 -1.416962 9.727151 3.837450 -7.654000 2.421418 0.000000 0.000000 0.000000 1.451233 -0.948818 6.216753 -5.343566 -4.479842 2.947946 -71.672044 -17.378062 -16.202947 148.265184 -82.673805 -126.366914 0.000000 0.000000 0.000000 -2.600857 0.922309 5.959154 16.773365 10.783428 8.869026 25.954917 -20.472563 47.879872 -32.075699 85.972021 -29.265803 0.000000 0.000000 0.000000 
-86.737473 78.982590 -1.230029 179.588992 23.439616 -178.792113 -3.427102 -4.611172 11.678588 -3.408637 3.673268 -14.424405 9.886256 -2.302770 41.140398 -7.282334 -7.637229 -17.316053 0.000000 0.000000 0.000000 -1.615679 -1.458299 10.715099 -3.537285 0.362042 -40.331656 -1.590787 6.831060 32.324126 9.831415 6.215794 1.422454 0.000000 0.000000 0.000000 4.139949 1.308852 -7.339910 0.940369 2.106851 -1.989392 0.449717 -2.654360 7.605322 -0.000707 0.119350 0.128595 0.297744 -1.386426 9.666398 4.066873 -7.880506 2.763444 0.000000 0.000000 0.000000 1.687026 -0.953045 6.075835 -5.077837 -4.296986 2.736978 -70.928229 -17.229506 -16.638879 147.618406 -82.658157 -126.316071 0.000000 0.000000 0.000000 -2.441307 0.916941 5.827708 17.449924 10.488438 8.784755 25.622736 -19.644095 48.343519 -37.515012 86.699327 -34.951956 0.000000 0.000000 0.000000 
-84.516106 78.937492 -3.142045 179.899041 23.006331 -179.106616 -3.382614 -3.411523 11.757786 -2.486629 3.970116 -13.550761 10.557177 -1.224685 41.889400 -6.496441 -6.492073 -14.796754 0.000000 0.000000 0.000000 -1.822862 -1.784189 11.385069 -2.637634 0.802140 -39.031922 -1.510531 6.796818 34.158486 9.622345 6.387811 -0.759116 0.000000 0.000000 0.000000 4.050888 1.025490 -7.376022 0.822709 1.902495 -2.221148 0.622559 -2.670332 7.645174 0.015637 0.110826 0.078408 0.437880 -1.207509 9.630064 4.334326 -8.308538 2.884586 0.000000 0.000000 0.000000 1.752689 -1.025015 6.026839 -4.703555 -4.226215 2.336266 -70.208402 -17.490229 -16.873298 148.986971 -82.530262 -128.285870 0.000000 0.000000 0.000000 -2.223970 0.837074 5.684520 17.933498 10.047009 8.662727 25.175314 -18.743000 48.739475 -50.742302 87.477955 -48.402942 0.000000 0.000000 0.000000 
-82.413750 78.985588 -4.858761 -179.924286 23.246460 -179.386258 -3.421897 -2.596024 11.627392 -1.676882 4.677808 -13.191249 11.409458 0.256039 43.150789 -5.815614 -5.568542 -12.569157 0.000000 0.000000 0.000000 -1.777632 -2.305814 11.749910 -1.609375 1.142210 -37.969250 -1.341354 6.046857 35.693295 9.497265 6.483886 -2.292085 0.000000 0.000000 0.000000 4.039647 0.728023 -7.296417 0.691284 1.909420 -2.371718 0.737027 -2.827851 7.693150 0.073154 -0.057351 0.049806 0.423313 -1.424348 9.501038 4.384951 -8.484513 2.944437 0.000000 0.000000 0.000000 1.803704 -0.987596 5.977329 -4.310271 -4.121742 2.192679 -69.496738 -18.405635 -17.066192 148.925759 -82.399785 -128.801276 0.000000 0.000000 0.000000 -2.216752 0.779468 5.594472 18.266586 9.927652 8.441836 24.790744 -17.700813 48.801510 -65.172886 88.077256 -63.051218 0.000000 0.000000 0.000000 
-80.482834 79.099396 -6.339149 -179.846148 23.917207 -179.523736 -3.501196 -2.517704 11.404821 -0.958530 5.441488 -13.339124 12.043908 1.051258 45.299327 -5.417043 -5.089244 -10.933358 0.000000 0.000000 0.000000 -1.947448 -2.980888 11.900172 -0.634199 1.461901 -36.936154 -1.371521 4.715268 37.072856 9.435819 6.479842 -3.609819 0.000000 0.000000 0.000000 4.119334 0.236445 -7.230523 0.562441 1.855943 -2.496260 0.797336 -2.836900 7.738463 0.046182 -0.044526 0.061714 0.444249 -1.464679 9.458178 4.388619 -8.571898 2.913187 0.000000 0.000000 0.000000 1.896811 -1.024766 5.990375 -3.892356 -4.231788 2.042389 -68.847064 -19.623151 -16.801319 147.009631 -82.323095 -127.408190 0.000000 0.000000 0.000000 -2.184165 0.806894 5.602577 18.570169 9.698604 8.331502 24.342220 -16.722765 48.595485 -82.056889 88.332466 -80.129006 0.000000 0.000000 0.000000 
-78.731422 79.247543 -7.548520 -179.657867 24.803518 -179.544691 -3.720083 -3.062335 11.274008 -0.441925 5.757972 -14.035361 11.793825 0.835325 48.053362 -5.473482 -5.236114 -9.782053 0.000000 0.000000 0.000000 -2.309077 -3.515828 11.891624 0.598614 1.982631 -35.816631 -1.673986 3.180731 38.103037 9.396535 6.174374 -5.015007 0.000000 0.000000 0.000000 4.396539 -0.206355 -7.084944 0.546643 1.828690 -2.625712 0.823028 -2.855644 7.799242 -0.061590 -0.052413 0.031925 0.393350 -1.533261 9.520878 4.272382 -8.590874 2.865404 0.000000 0.000000 0.000000 1.923023 -0.975098 6.103286 -3.507800 -4.477389 1.982337 -68.110599 -20.987061 -16.333848 146.050318 -82.581796 -126.920788 0.000000 0.000000 0.000000 -2.202702 0.867777 5.658919 18.828989 9.526697 8.166500 23.917960 -15.957752 48.411544 -94.728338 88.496890 -92.976565 0.000000 0.000000 0.000000 
-77.135277 79.396156 -8.536703 -179.475692 26.023680 -179.559813 -3.782881 -3.528721 11.169515 0.067506 5.835037 -15.411880 10.912024 0.111196 51.244703 -5.858737 -5.831078 -9.017580 0.000000 0.000000 0.000000 -1.613625 -3.935445 11.707669 0.563422 2.045329 -34.711452 -0.841912 3.016320 38.740403 9.055108 6.091883 -6.524276 0.000000 0.000000 0.000000 4.714873 -0.351819 -6.834671 0.563900 1.790618 -2.701348 0.831238 -2.893346 7.916311 -0.028299 -0.061792 0.019894 0.347809 -1.623839 9.592439 4.285939 -8.608682 2.706102 0.000000 0.000000 0.000000 1.894674 -1.101245 6.144855 -3.259448 -4.701658 2.104865 -67.510027 -21.983309 -15.476222 144.299576 -83.021468 -125.585076 0.000000 0.000000 0.000000 -2.285627 0.792677 5.774200 18.989739 9.488798 8.178928 23.632598 -15.247935 48.414826 -93.780697 88.402961 -92.180643 0.000000 0.000000 0.000000 
-75.660606 79.546722 -9.428774 -179.621244 27.320234 -179.652676 -3.533097 -3.605107 10.978687 0.218453 6.153579 -17.619629 9.420458 -0.861678 55.257064 -6.777433 -7.227358 -8.613808 0.000000 0.000000 0.000000 -0.985805 -4.133193 11.601093 0.558711 1.448309 -33.479764 -0.116407 3.613788 38.995975 8.955023 6.207737 -7.944725 0.000000 0.000000 0.000000 4.796683 -0.276300 -6.535192 0.520574 1.746101 -2.848981 0.809268 -2.931581 8.048057 -0.020925 -0.066282 0.024072 0.354718 -1.594998 9.641816 4.206436 -8.618383 2.586979 0.000000 0.000000 0.000000 1.817496 -1.156035 6.169418 -3.274921 -4.985851 2.323326 -66.921797 -22.658475 -14.395990 142.395688 -83.503605 -124.056439 0.000000 0.000000 0.000000 -2.245772 0.766277 5.819486 19.178780 9.425588 8.169149 23.531421 -15.016002 48.605983 -89.097393 88.442289 -87.623363 0.000000 0.000000 0.000000 
-74.295242 79.657860 -10.227155 -179.652854 29.112285 -179.763298 -2.773438 -3.170786 10.802545 -0.021137 6.303095 -20.383463 8.558582 -1.318915 58.926426 -8.367433 -9.139585 -9.818267 0.000000 0.000000 0.000000 -0.245830 -3.863869 11.509663 0.528547 0.761455 -32.182881 0.452622 4.380696 39.025338 8.993921 6.495686 -9.410593 0.000000 0.000000 0.000000 4.921063 0.039541 -6.081092 0.541408 1.737570 -2.912466 0.788597 -2.933502 8.212460 -0.051821 -0.033209 0.014657 0.380349 -1.616604 9.733470 4.124580 -8.539239 2.383694 0.000000 0.000000 0.000000 1.806588 -0.998695 6.241036 -3.178021 -5.203348 2.514000 -66.518311 -23.011995 -12.990623 141.497805 -84.035793 -123.530337 0.000000 0.000000 0.000000 -2.283455 0.896819 5.919354 19.502193 9.439035 8.279934 23.478311 -14.967005 48.907843 -80.514366 88.386138 -79.144667 0.000000 0.000000 0.000000 
